<?xml version="1.0" encoding="iso-8859-1"?>
<!-- Generator: Adobe Illustrator 19.0.0, SVG Export Plug-In . SVG Version: 6.00 Build 0)  -->
<svg version="1.1" id="Capa_1" xmlns="http://www.w3.org/2000/svg" xmlns:xlink="http://www.w3.org/1999/xlink" x="0px" y="0px"
	 viewBox="0 0 480 480" style="enable-background:new 0 0 480 480;" xml:space="preserve">
<g>
	<circle style="fill:#FFB546;" cx="240" cy="240" r="152"/>
	<path style="fill:#FFB546;" d="M424,232h56v16h-56V232z"/>
	<path style="fill:#FFB546;" d="M0,232h56v16H0V232z"/>
	<path style="fill:#FFB546;" d="M395.383,141.071l48.493-27.992l7.999,13.857l-48.493,27.992L395.383,141.071z"/>
	<path style="fill:#FFB546;" d="M28.16,353.068l48.493-27.992l7.999,13.857l-48.493,27.992L28.16,353.068z"/>
	<path style="fill:#FFB546;" d="M325.068,76.655l27.992-48.493l13.857,7.999l-27.992,48.493L325.068,76.655z"/>
	<path style="fill:#FFB546;" d="M113.106,443.849l27.992-48.493l13.857,7.999l-27.992,48.493L113.106,443.849z"/>
	<path style="fill:#FFB546;" d="M232,0h16v56h-16V0z"/>
	<path style="fill:#FFB546;" d="M232,424h16v56h-16V424z"/>
	<path style="fill:#FFB546;" d="M113.098,36.154l13.856-8.001l27.999,48.489l-13.856,8.001L113.098,36.154z"/>
	<path style="fill:#FFB546;" d="M325.073,403.348l13.856-8.001l27.999,48.489l-13.856,8.001L325.073,403.348z"/>
	<path style="fill:#FFB546;" d="M28.151,126.932l8.001-13.856l48.489,27.999L76.64,154.93L28.151,126.932z"/>
	<path style="fill:#FFB546;" d="M395.354,338.931l8.001-13.856l48.489,27.999l-8.001,13.856L395.354,338.931z"/>
</g>
<g>
</g>
<g>
</g>
<g>
</g>
<g>
</g>
<g>
</g>
<g>
</g>
<g>
</g>
<g>
</g>
<g>
</g>
<g>
</g>
<g>
</g>
<g>
</g>
<g>
</g>
<g>
</g>
<g>
</g>
</svg>
